<?xml version="1.0" encoding="utf-8"?>
<!-- Generator: Adobe Illustrator 23.0.2, SVG Export Plug-In . SVG Version: 6.00 Build 0)  -->
<svg version="1.1" id="Capa_1" xmlns="http://www.w3.org/2000/svg" xmlns:xlink="http://www.w3.org/1999/xlink" x="0px" y="0px"
	 viewBox="0 0 16 16" style="enable-background:new 0 0 16 16;" xml:space="preserve">
<style type="text/css">
	.st0{fill:#8F8F8F;}
</style>
<title>lupa</title>
<desc>Created with Sketch.</desc>
<g id="Page-1">
	<g id="gifOS_resultados-de-busqueda" transform="translate(-1190.000000, -198.000000)">
		<g id="busqueda_inactive" transform="translate(100.000000, 143.000000)">
			<g id="boton-buscar_-active" transform="translate(1080.000000, 45.000000)">
				<g id="noun_Pixel-Search_644045" transform="translate(10.000000, 10.000000)">
					<path id="lupa" class="st0" d="M7.1,1.8c-1.2,0-2.4,0-3.6,0V0c1.8,0,3.6,0,5.3,0v1.8H7.1z M10.7,3.6H8.9V1.8h1.8V3.6z
						 M10.7,10.7h1.8v1.8h-1.8V10.7z M8.9,8.9h1.8v1.8H8.9V8.9z M10.7,7.1c0-1.2,0-2.4,0-3.6h1.8c0,1.8,0,3.6,0,5.3h-1.8V7.1z
						 M3.6,1.8v1.8H1.8V1.8H3.6z M12.4,12.4h1.8v1.8h-1.8V12.4z M14.2,14.2H16V16h-1.8V14.2z M5.3,10.7c1.2,0,2.4,0,3.6,0v1.8
						c-1.8,0-3.6,0-5.3,0v-1.8H5.3z M1.8,5.3c0,1.2,0,2.4,0,3.6H0c0-1.8,0-3.6,0-5.3h1.8V5.3z M1.8,8.9h1.8v1.8H1.8V8.9z"/>
				</g>
			</g>
		</g>
	</g>
</g>
</svg>
